<?xml version="1.0" encoding="UTF-8"?>
<svg id="Layer_2" data-name="Layer 2" xmlns="http://www.w3.org/2000/svg" viewBox="0 0 15.55 15.56">
  <defs>
    <style>
      .cls-1 {
        fill: #414042;
      }
    </style>
  </defs>
  <g id="Layer_1-2" data-name="Layer 1">
    <g>
      <path class="cls-1" d="M8.42,11l-1.93,1.93c-1.07,1.07-2.8,1.07-3.87,0-1.06-1.07-1.06-2.8,0-3.87l1.93-1.93c.36-.35.37-.93.02-1.29s-.93-.37-1.29-.02c0,0-.02.01-.02.02l-1.93,1.93c-1.78,1.78-1.78,4.66,0,6.44.85.86,2.01,1.34,3.22,1.33,1.21,0,2.37-.48,3.22-1.33l1.93-1.93c.36-.35.37-.93.02-1.29-.35-.36-.93-.37-1.29-.02,0,0-.02.01-.02.02ZM7.78,1.33l-1.93,1.93c-.36.35-.37.93-.02,1.29.35.36.93.37,1.29.02,0,0,.02-.01.02-.02l1.93-1.93c1.07-1.07,2.8-1.07,3.87,0,1.06,1.07,1.06,2.8,0,3.87l-1.93,1.93c-.36.35-.37.93-.02,1.29.35.36.93.37,1.29.02,0,0,.02-.01.02-.02l1.93-1.93c1.78-1.78,1.78-4.66,0-6.44-1.78-1.78-4.66-1.78-6.45,0h0Z"/>
      <path class="cls-1" d="M9.07,5.2l-3.87,3.87c-.36.35-.37.93-.02,1.29s.93.37,1.29.02c0,0,.02-.01.02-.02l3.87-3.87c.36-.35.37-.93.02-1.29-.35-.36-.93-.37-1.29-.02,0,0-.02.01-.02.02h0Z"/>
    </g>
  </g>
</svg>