<?xml version="1.0" encoding="UTF-8"?>
<svg id="Layer_2" data-name="Layer 2" xmlns="http://www.w3.org/2000/svg" viewBox="0 0 12.89 17.19">
  <defs>
    <style>
      .cls-1 {
        fill: #414042;
      }
    </style>
  </defs>
  <g id="Layer_1-2" data-name="Layer 1">
    <g>
      <path class="cls-1" d="M11.28,2.15h-1.61v-.54c0-.3-.24-.54-.54-.54h-1.17C7.67.24,6.75-.2,5.91.09c-.46.16-.82.52-.98.98h-1.17c-.3,0-.54.24-.54.54v.54h-1.61c-.89,0-1.61.72-1.61,1.61v11.81c0,.89.72,1.61,1.61,1.61h9.67c.89,0,1.61-.72,1.61-1.61V3.76c0-.89-.72-1.61-1.61-1.61h0ZM4.3,2.15h1.07c.3,0,.54-.24.54-.54s.24-.54.54-.54.54.24.54.54.24.54.54.54h1.07v1.07h-4.3v-1.07ZM11.81,15.58c0,.3-.24.54-.54.54H1.61c-.3,0-.54-.24-.54-.54V3.76c0-.3.24-.54.54-.54h1.61v.54c0,.3.24.54.54.54h5.37c.3,0,.54-.24.54-.54v-.54h1.61c.3,0,.54.24.54.54v11.81Z"/>
      <path class="cls-1" d="M9.67,6.45H3.22c-.3,0-.54.24-.54.54s.24.54.54.54h6.44c.3,0,.54-.24.54-.54s-.24-.54-.54-.54ZM9.67,9.67H3.22c-.3,0-.54.24-.54.54s.24.54.54.54h6.44c.3,0,.54-.24.54-.54s-.24-.54-.54-.54ZM9.67,12.89H3.22c-.3,0-.54.24-.54.54s.24.54.54.54h6.44c.3,0,.54-.24.54-.54s-.24-.54-.54-.54Z"/>
    </g>
  </g>
</svg>